FILE "Growth꞉ From Microorganisms to Megacities [1469073307].m4b" MP3
TRACK 1 AUDIO
  TITLE "Opening Credits"
  INDEX 01 0:00:00
TRACK 2 AUDIO
  TITLE "Preface"
  INDEX 01 0:26:08
TRACK 3 AUDIO
  TITLE "1. Trajectories: or Common Patterns of Growth"
  INDEX 01 54:06:28
TRACK 4 AUDIO
  TITLE "Time Spans"
  INDEX 01 60:26:49
TRACK 5 AUDIO
  TITLE "Figures of Merit"
  INDEX 01 70:12:39
TRACK 6 AUDIO
  TITLE "Linear and Exponential Growth"
  INDEX 01 90:21:27
TRACK 7 AUDIO
  TITLE "Confined Growth Patterns"
  INDEX 01 148:39:46
TRACK 8 AUDIO
  TITLE "Collective Outcomes of Growth"
  INDEX 01 203:01:44
TRACK 9 AUDIO
  TITLE "2. Nature: or Growth of Living Matter"
  INDEX 01 241:36:12
TRACK 10 AUDIO
  TITLE "Microorganisms and Viruses"
  INDEX 01 258:56:34
TRACK 11 AUDIO
  TITLE "Trees and Forests"
  INDEX 01 317:43:18
TRACK 12 AUDIO
  TITLE "Crops"
  INDEX 01 366:57:74
TRACK 13 AUDIO
  TITLE "Animals"
  INDEX 01 427:36:70
TRACK 14 AUDIO
  TITLE "Humans"
  INDEX 01 500:25:28
TRACK 15 AUDIO
  TITLE "3. Energies: or Growth of Primary and Secondary Converters"
  INDEX 01 558:00:73
TRACK 16 AUDIO
  TITLE "Harnessing Water and Wind"
  INDEX 01 568:04:08
TRACK 17 AUDIO
  TITLE "Steam: Boilers, Engines, and Turbines"
  INDEX 01 594:02:71
TRACK 18 AUDIO
  TITLE "Internal Combustion Engines"
  INDEX 01 632:22:62
TRACK 19 AUDIO
  TITLE "Nuclear Reactors and PV Cells"
  INDEX 01 684:06:64
TRACK 20 AUDIO
  TITLE "Electric Lights and Motors"
  INDEX 01 696:39:57
TRACK 21 AUDIO
  TITLE "4. Artifacts: or Growth of Man-Made Objects and Their Performances"
  INDEX 01 719:32:60
TRACK 22 AUDIO
  TITLE "Tools and Simple Machines"
  INDEX 01 728:38:29
TRACK 23 AUDIO
  TITLE "Structures"
  INDEX 01 761:47:58
TRACK 24 AUDIO
  TITLE "Infrastructures"
  INDEX 01 797:27:23
TRACK 25 AUDIO
  TITLE "Transportation"
  INDEX 01 840:05:02
TRACK 26 AUDIO
  TITLE "Electronics"
  INDEX 01 899:07:12
TRACK 27 AUDIO
  TITLE "5. Populations, Societies, Economies: or Growth of the Most Complex Assemblies"
  INDEX 01 946:17:62
TRACK 28 AUDIO
  TITLE "Populations"
  INDEX 01 958:15:67
TRACK 29 AUDIO
  TITLE "Cities"
  INDEX 01 1037:54:21
TRACK 30 AUDIO
  TITLE "Empires"
  INDEX 01 1115:20:63
TRACK 31 AUDIO
  TITLE "Economies"
  INDEX 01 1176:13:20
TRACK 32 AUDIO
  TITLE "Civilizations"
  INDEX 01 1354:37:05
TRACK 33 AUDIO
  TITLE "6. What Comes After Growth: or Demise and Continuity"
  INDEX 01 1397:55:53
TRACK 34 AUDIO
  TITLE "Life Cycles of Organisms"
  INDEX 01 1409:50:01
TRACK 35 AUDIO
  TITLE "Retreat of Artifacts and Processes"
  INDEX 01 1424:32:33
TRACK 36 AUDIO
  TITLE "Populations and Societies"
  INDEX 01 1442:17:44
TRACK 37 AUDIO
  TITLE "Economies"
  INDEX 01 1503:04:40
TRACK 38 AUDIO
  TITLE "Modern Civilization"
  INDEX 01 1530:42:35
TRACK 39 AUDIO
  TITLE "Coda"
  INDEX 01 1560:28:09
TRACK 40 AUDIO
  TITLE "End Credits"
  INDEX 01 1575:08:23
